# xmcd
# 
# Track frame offsets:
#     150
#     11437
#     20175
#     36437
#     46375
#     62287
#     74637
#     86087
#     97275
#     106962
#     119512
#     132625
#     142100
#     155237
#     167012
#     176862
# 
# Disc length: 2497
# 
# Revision: 3
# Processed by: cddbd v1.5.1PL0 Copyright (c) Steve Scherf et al.
# Submitted via: BonkEnc v1.0beta3
# 
DISCID=f709bf10
DTITLE=Various Artist - The Country and Western Collection - CD 1
DYEAR=1997
DGENRE=Country
TTITLE0=Various Artist - I´m A Nut
TTITLE1=Various Artist - Trouble On The Turnpike
TTITLE2=Various Artist - Once Upon A Time In The West (Spiel Mir Das Lied Vom Tod)
TTITLE3=Various Artist - Ramblin´ Rose
TTITLE4=Various Artist - Cotton Fields
TTITLE5=Various Artist - For A Few Dollars More
TTITLE6=Various Artist - Skip A Rope
TTITLE7=Various Artist - Bloue Bayou
TTITLE8=Various Artist - Mansion Of Tears
TTITLE9=Various Artist - Lokk Homeward Angel
TTITLE10=Various Artist - The Good, The Bad And The Ugly
TTITLE11=Various Artist - Second Hand Rose
TTITLE12=Various Artist - Country Music Is Here To Stay
TTITLE13=Various Artist - Is It Wrong
TTITLE14=Various Artist - Ghost Riders
TTITLE15=Various Artist - Gonna Find Me A Blue Bird
EXTD=YEAR: 1997 ID3G: 2
EXTT0=
EXTT1=
EXTT2=
EXTT3=
EXTT4=
EXTT5=
EXTT6=
EXTT7=
EXTT8=
EXTT9=
EXTT10=
EXTT11=
EXTT12=
EXTT13=
EXTT14=
EXTT15=
PLAYORDER=
